<svg xmlns="http://www.w3.org/2000/svg" xmlns:xlink="http://www.w3.org/1999/xlink" viewBox="0 0 1647.74 374.13"><defs><style>.cls-1,.cls-5{fill:none;}.cls-2{clip-path:url(#clip-path);}.cls-3{fill:#fff;}.cls-4,.cls-6{fill:#fa0;}.cls-5{stroke:#fff;stroke-miterlimit:10;stroke-width:0.4px;}.cls-6{font-size:262px;font-family:Arial-BoldMT, Arial;font-weight:700;letter-spacing:-0.01em;}</style><clipPath id="clip-path" transform="translate(-141.45 -366.55)"><rect class="cls-1" x="702.64" y="350.32" width="399.83" height="399.83"/></clipPath></defs><g id="Layer_4" data-name="Layer 4"><g class="cls-2"><g class="cls-2"><path class="cls-3" d="M739.29,454.44l162.87-87.89L1066.46,454l0,190.43L904.07,734,738.7,642.28q.28-93.91.59-187.84" transform="translate(-141.45 -366.55)"/></g><g class="cls-2"><path class="cls-4" d="M744.8,458.32l157.65-85.19,157.79,84.11-.08,183.26L904,726.44,745,639.29q-.09-90.48-.17-181" transform="translate(-141.45 -366.55)"/></g><polygon class="cls-3" points="638.05 115.15 706.04 46.96 719.92 60.64 761.11 19.8 802.21 61.05 815.88 47.16 884.08 115.15 870.5 128.73 884.08 142.92 870.5 156.29 856.41 142.31 842.83 156.29 788.32 101.68 774.74 115.15 788.42 129.14 774.74 142.41 788.32 156.29 774.85 169.87 788.42 183.69 774.95 197.12 788.42 211.11 774.64 224.18 788.32 238.57 774.54 251.84 788.42 265.83 774.95 279.1 788.22 293.08 774.74 306.76 788.01 320.34 761.07 347.7 733.71 320.13 747.18 306.56 733.71 292.78 747.18 279.3 733.71 265.32 747.28 252.04 733.91 238.47 747.18 224.79 733.81 211.01 747.28 197.53 733.81 183.69 747.38 169.97 733.61 156.29 747.38 142.92 733.61 128.73 747.28 115.25 733.5 101.37 679.19 156.19 665.21 142.51 651.94 156.09 638.05 142.31 651.63 129.24 638.05 115.15"/><polygon class="cls-5" points="638.05 115.15 706.04 46.96 719.92 60.64 761.11 19.8 802.21 61.05 815.88 47.16 884.08 115.15 870.5 128.73 884.08 142.92 870.5 156.29 856.41 142.31 842.83 156.29 788.32 101.68 774.74 115.15 788.42 129.14 774.74 142.41 788.32 156.29 774.85 169.87 788.42 183.69 774.95 197.12 788.42 211.11 774.64 224.18 788.32 238.57 774.54 251.84 788.42 265.83 774.95 279.1 788.22 293.08 774.74 306.76 788.01 320.34 761.07 347.7 733.71 320.13 747.18 306.56 733.71 292.78 747.18 279.3 733.71 265.32 747.28 252.04 733.91 238.47 747.18 224.79 733.81 211.01 747.28 197.53 733.81 183.69 747.38 169.97 733.61 156.29 747.38 142.92 733.61 128.73 747.28 115.25 733.5 101.37 679.19 156.19 665.21 142.51 651.94 156.09 638.05 142.31 651.63 129.24 638.05 115.15"/></g></g><g id="Layer_5" data-name="Layer 5"><text class="cls-6" transform="translate(0 275.5)">EXIS</text><text class="cls-6" transform="translate(930.3 275.5)">ENCE</text></g></svg>